<mxfile host="Electron" modified="2023-09-22T11:22:25.647Z" agent="Mozilla/5.0 (Macintosh; Intel Mac OS X 10_15_7) AppleWebKit/537.36 (KHTML, like Gecko) draw.io/21.7.5 Chrome/114.0.5735.289 Electron/25.8.1 Safari/537.36" etag="K0g0g3X-Qg_2LpmclemM" version="21.7.5" type="device" pages="2">
  <diagram name="第 1 页" id="uRADbxQXykLeoM9VQywE">
    <mxGraphModel dx="1434" dy="974" grid="1" gridSize="10" guides="1" tooltips="1" connect="1" arrows="1" fold="1" page="1" pageScale="1" pageWidth="1169" pageHeight="827" math="0" shadow="0">
      <root>
        <mxCell id="0" />
        <mxCell id="1" parent="0" />
        <mxCell id="Uys_baLE5X6fib-tSDhD-7" style="edgeStyle=orthogonalEdgeStyle;rounded=0;orthogonalLoop=1;jettySize=auto;html=1;" edge="1" parent="1" source="Uys_baLE5X6fib-tSDhD-1" target="Uys_baLE5X6fib-tSDhD-2">
          <mxGeometry relative="1" as="geometry" />
        </mxCell>
        <mxCell id="Uys_baLE5X6fib-tSDhD-1" value="Conn" style="whiteSpace=wrap;html=1;" vertex="1" parent="1">
          <mxGeometry x="20" y="272" width="120" height="60" as="geometry" />
        </mxCell>
        <mxCell id="Uys_baLE5X6fib-tSDhD-2" value="Socket" style="whiteSpace=wrap;html=1;" vertex="1" parent="1">
          <mxGeometry x="20" y="142" width="120" height="60" as="geometry" />
        </mxCell>
        <mxCell id="Uys_baLE5X6fib-tSDhD-6" style="edgeStyle=orthogonalEdgeStyle;rounded=0;orthogonalLoop=1;jettySize=auto;html=1;" edge="1" parent="1" source="Uys_baLE5X6fib-tSDhD-4" target="Uys_baLE5X6fib-tSDhD-1">
          <mxGeometry relative="1" as="geometry" />
        </mxCell>
        <mxCell id="Uys_baLE5X6fib-tSDhD-4" value="ConnMgr" style="whiteSpace=wrap;html=1;" vertex="1" parent="1">
          <mxGeometry x="210" y="274" width="120" height="60" as="geometry" />
        </mxCell>
        <mxCell id="Uys_baLE5X6fib-tSDhD-5" value="服务端" style="text;html=1;align=center;verticalAlign=middle;resizable=0;points=[];autosize=1;strokeColor=none;fillColor=none;" vertex="1" parent="1">
          <mxGeometry x="220" y="72" width="60" height="30" as="geometry" />
        </mxCell>
        <mxCell id="Uys_baLE5X6fib-tSDhD-8" value="Acceptor" style="whiteSpace=wrap;html=1;" vertex="1" parent="1">
          <mxGeometry x="210" y="154" width="120" height="60" as="geometry" />
        </mxCell>
        <mxCell id="Uys_baLE5X6fib-tSDhD-9" value="Eventloop" style="whiteSpace=wrap;html=1;" vertex="1" parent="1">
          <mxGeometry x="190" y="72" width="120" height="60" as="geometry" />
        </mxCell>
      </root>
    </mxGraphModel>
  </diagram>
  <diagram id="c18Sr4cqyus59-XO-Ogt" name="类图">
    <mxGraphModel dx="1194" dy="772" grid="1" gridSize="10" guides="1" tooltips="1" connect="1" arrows="1" fold="1" page="1" pageScale="1" pageWidth="1169" pageHeight="827" math="0" shadow="0">
      <root>
        <mxCell id="0" />
        <mxCell id="1" parent="0" />
        <mxCell id="EZzPmKoQQKgDypdtpeJH-1" value="&amp;lt;&amp;lt;interface&amp;gt;&amp;gt;&lt;br&gt;&lt;b&gt;Socket&lt;/b&gt;" style="swimlane;fontStyle=0;childLayout=stackLayout;horizontal=1;startSize=26;fillColor=none;horizontalStack=0;resizeParent=1;resizeParentMax=0;resizeLast=0;collapsible=1;marginBottom=0;whiteSpace=wrap;html=1;" vertex="1" parent="1">
          <mxGeometry x="630" y="78" width="160" height="156" as="geometry" />
        </mxCell>
        <mxCell id="EZzPmKoQQKgDypdtpeJH-2" value="handler() -&amp;gt; fd / SOCKET" style="text;strokeColor=none;fillColor=none;align=left;verticalAlign=top;spacingLeft=4;spacingRight=4;overflow=hidden;rotatable=0;points=[[0,0.5],[1,0.5]];portConstraint=eastwest;whiteSpace=wrap;html=1;" vertex="1" parent="EZzPmKoQQKgDypdtpeJH-1">
          <mxGeometry y="26" width="160" height="26" as="geometry" />
        </mxCell>
        <mxCell id="EZzPmKoQQKgDypdtpeJH-3" value="close()" style="text;strokeColor=none;fillColor=none;align=left;verticalAlign=top;spacingLeft=4;spacingRight=4;overflow=hidden;rotatable=0;points=[[0,0.5],[1,0.5]];portConstraint=eastwest;whiteSpace=wrap;html=1;" vertex="1" parent="EZzPmKoQQKgDypdtpeJH-1">
          <mxGeometry y="52" width="160" height="26" as="geometry" />
        </mxCell>
        <mxCell id="EZzPmKoQQKgDypdtpeJH-4" value="shutdown()" style="text;strokeColor=none;fillColor=none;align=left;verticalAlign=top;spacingLeft=4;spacingRight=4;overflow=hidden;rotatable=0;points=[[0,0.5],[1,0.5]];portConstraint=eastwest;whiteSpace=wrap;html=1;" vertex="1" parent="EZzPmKoQQKgDypdtpeJH-1">
          <mxGeometry y="78" width="160" height="26" as="geometry" />
        </mxCell>
        <mxCell id="EZzPmKoQQKgDypdtpeJH-51" value="local_address()" style="text;strokeColor=none;fillColor=none;align=left;verticalAlign=top;spacingLeft=4;spacingRight=4;overflow=hidden;rotatable=0;points=[[0,0.5],[1,0.5]];portConstraint=eastwest;whiteSpace=wrap;html=1;" vertex="1" parent="EZzPmKoQQKgDypdtpeJH-1">
          <mxGeometry y="104" width="160" height="26" as="geometry" />
        </mxCell>
        <mxCell id="EZzPmKoQQKgDypdtpeJH-52" value="peer_address()" style="text;strokeColor=none;fillColor=none;align=left;verticalAlign=top;spacingLeft=4;spacingRight=4;overflow=hidden;rotatable=0;points=[[0,0.5],[1,0.5]];portConstraint=eastwest;whiteSpace=wrap;html=1;" vertex="1" parent="EZzPmKoQQKgDypdtpeJH-1">
          <mxGeometry y="130" width="160" height="26" as="geometry" />
        </mxCell>
        <mxCell id="EZzPmKoQQKgDypdtpeJH-5" style="edgeStyle=orthogonalEdgeStyle;rounded=0;orthogonalLoop=1;jettySize=auto;html=1;" edge="1" parent="1" source="EZzPmKoQQKgDypdtpeJH-6" target="EZzPmKoQQKgDypdtpeJH-1">
          <mxGeometry relative="1" as="geometry" />
        </mxCell>
        <mxCell id="EZzPmKoQQKgDypdtpeJH-6" value="&amp;lt;&amp;lt;interface&amp;gt;&amp;gt;&lt;br&gt;&lt;b&gt;StreamSocket&lt;/b&gt;" style="swimlane;fontStyle=0;childLayout=stackLayout;horizontal=1;startSize=26;fillColor=none;horizontalStack=0;resizeParent=1;resizeParentMax=0;resizeLast=0;collapsible=1;marginBottom=0;whiteSpace=wrap;html=1;" vertex="1" parent="1">
          <mxGeometry x="500" y="320" width="140" height="104" as="geometry" />
        </mxCell>
        <mxCell id="EZzPmKoQQKgDypdtpeJH-7" value="+ field: type" style="text;strokeColor=none;fillColor=none;align=left;verticalAlign=top;spacingLeft=4;spacingRight=4;overflow=hidden;rotatable=0;points=[[0,0.5],[1,0.5]];portConstraint=eastwest;whiteSpace=wrap;html=1;" vertex="1" parent="EZzPmKoQQKgDypdtpeJH-6">
          <mxGeometry y="26" width="140" height="26" as="geometry" />
        </mxCell>
        <mxCell id="EZzPmKoQQKgDypdtpeJH-8" value="+ field: type" style="text;strokeColor=none;fillColor=none;align=left;verticalAlign=top;spacingLeft=4;spacingRight=4;overflow=hidden;rotatable=0;points=[[0,0.5],[1,0.5]];portConstraint=eastwest;whiteSpace=wrap;html=1;" vertex="1" parent="EZzPmKoQQKgDypdtpeJH-6">
          <mxGeometry y="52" width="140" height="26" as="geometry" />
        </mxCell>
        <mxCell id="EZzPmKoQQKgDypdtpeJH-9" value="+ field: type" style="text;strokeColor=none;fillColor=none;align=left;verticalAlign=top;spacingLeft=4;spacingRight=4;overflow=hidden;rotatable=0;points=[[0,0.5],[1,0.5]];portConstraint=eastwest;whiteSpace=wrap;html=1;" vertex="1" parent="EZzPmKoQQKgDypdtpeJH-6">
          <mxGeometry y="78" width="140" height="26" as="geometry" />
        </mxCell>
        <mxCell id="EZzPmKoQQKgDypdtpeJH-10" style="edgeStyle=orthogonalEdgeStyle;rounded=0;orthogonalLoop=1;jettySize=auto;html=1;exitX=0.5;exitY=0;exitDx=0;exitDy=0;" edge="1" parent="1" source="EZzPmKoQQKgDypdtpeJH-11" target="EZzPmKoQQKgDypdtpeJH-1">
          <mxGeometry relative="1" as="geometry" />
        </mxCell>
        <mxCell id="EZzPmKoQQKgDypdtpeJH-11" value="&amp;lt;&amp;lt;interface&amp;gt;&amp;gt;&lt;br&gt;&lt;b&gt;DatagramSocket&lt;/b&gt;" style="swimlane;fontStyle=0;childLayout=stackLayout;horizontal=1;startSize=26;fillColor=none;horizontalStack=0;resizeParent=1;resizeParentMax=0;resizeLast=0;collapsible=1;marginBottom=0;whiteSpace=wrap;html=1;" vertex="1" parent="1">
          <mxGeometry x="760" y="322" width="140" height="104" as="geometry" />
        </mxCell>
        <mxCell id="EZzPmKoQQKgDypdtpeJH-12" value="+ field: type" style="text;strokeColor=none;fillColor=none;align=left;verticalAlign=top;spacingLeft=4;spacingRight=4;overflow=hidden;rotatable=0;points=[[0,0.5],[1,0.5]];portConstraint=eastwest;whiteSpace=wrap;html=1;" vertex="1" parent="EZzPmKoQQKgDypdtpeJH-11">
          <mxGeometry y="26" width="140" height="26" as="geometry" />
        </mxCell>
        <mxCell id="EZzPmKoQQKgDypdtpeJH-13" value="+ field: type" style="text;strokeColor=none;fillColor=none;align=left;verticalAlign=top;spacingLeft=4;spacingRight=4;overflow=hidden;rotatable=0;points=[[0,0.5],[1,0.5]];portConstraint=eastwest;whiteSpace=wrap;html=1;" vertex="1" parent="EZzPmKoQQKgDypdtpeJH-11">
          <mxGeometry y="52" width="140" height="26" as="geometry" />
        </mxCell>
        <mxCell id="EZzPmKoQQKgDypdtpeJH-14" value="+ field: type" style="text;strokeColor=none;fillColor=none;align=left;verticalAlign=top;spacingLeft=4;spacingRight=4;overflow=hidden;rotatable=0;points=[[0,0.5],[1,0.5]];portConstraint=eastwest;whiteSpace=wrap;html=1;" vertex="1" parent="EZzPmKoQQKgDypdtpeJH-11">
          <mxGeometry y="78" width="140" height="26" as="geometry" />
        </mxCell>
        <mxCell id="EZzPmKoQQKgDypdtpeJH-15" style="edgeStyle=orthogonalEdgeStyle;rounded=0;orthogonalLoop=1;jettySize=auto;html=1;" edge="1" parent="1" source="EZzPmKoQQKgDypdtpeJH-16" target="EZzPmKoQQKgDypdtpeJH-6">
          <mxGeometry relative="1" as="geometry" />
        </mxCell>
        <mxCell id="EZzPmKoQQKgDypdtpeJH-16" value="TcpSocket" style="whiteSpace=wrap;html=1;" vertex="1" parent="1">
          <mxGeometry x="440" y="470" width="120" height="30" as="geometry" />
        </mxCell>
        <mxCell id="EZzPmKoQQKgDypdtpeJH-17" style="edgeStyle=orthogonalEdgeStyle;rounded=0;orthogonalLoop=1;jettySize=auto;html=1;" edge="1" parent="1" source="EZzPmKoQQKgDypdtpeJH-18" target="EZzPmKoQQKgDypdtpeJH-6">
          <mxGeometry relative="1" as="geometry" />
        </mxCell>
        <mxCell id="EZzPmKoQQKgDypdtpeJH-18" value="LocalStreamSocket" style="whiteSpace=wrap;html=1;" vertex="1" parent="1">
          <mxGeometry x="570" y="470" width="120" height="30" as="geometry" />
        </mxCell>
        <mxCell id="EZzPmKoQQKgDypdtpeJH-21" style="edgeStyle=orthogonalEdgeStyle;rounded=0;orthogonalLoop=1;jettySize=auto;html=1;" edge="1" parent="1" source="EZzPmKoQQKgDypdtpeJH-19" target="EZzPmKoQQKgDypdtpeJH-11">
          <mxGeometry relative="1" as="geometry" />
        </mxCell>
        <mxCell id="EZzPmKoQQKgDypdtpeJH-19" value="UdpSocket" style="whiteSpace=wrap;html=1;" vertex="1" parent="1">
          <mxGeometry x="700" y="470" width="120" height="30" as="geometry" />
        </mxCell>
        <mxCell id="EZzPmKoQQKgDypdtpeJH-22" style="edgeStyle=orthogonalEdgeStyle;rounded=0;orthogonalLoop=1;jettySize=auto;html=1;" edge="1" parent="1" source="EZzPmKoQQKgDypdtpeJH-20" target="EZzPmKoQQKgDypdtpeJH-11">
          <mxGeometry relative="1" as="geometry" />
        </mxCell>
        <mxCell id="EZzPmKoQQKgDypdtpeJH-20" value="LocalDatagramSocket" style="whiteSpace=wrap;html=1;" vertex="1" parent="1">
          <mxGeometry x="830" y="470" width="120" height="30" as="geometry" />
        </mxCell>
        <mxCell id="EZzPmKoQQKgDypdtpeJH-47" value="SocketException" style="whiteSpace=wrap;html=1;" vertex="1" parent="1">
          <mxGeometry x="440" y="70" width="120" height="40" as="geometry" />
        </mxCell>
        <mxCell id="EZzPmKoQQKgDypdtpeJH-48" value="EventLoop" style="whiteSpace=wrap;html=1;" vertex="1" parent="1">
          <mxGeometry x="1040" y="100" width="120" height="60" as="geometry" />
        </mxCell>
        <mxCell id="EZzPmKoQQKgDypdtpeJH-49" value="ByteStream" style="whiteSpace=wrap;html=1;" vertex="1" parent="1">
          <mxGeometry x="1000" y="190" width="120" height="60" as="geometry" />
        </mxCell>
        <mxCell id="EZzPmKoQQKgDypdtpeJH-38" style="edgeStyle=orthogonalEdgeStyle;rounded=0;orthogonalLoop=1;jettySize=auto;html=1;exitX=0.5;exitY=0;exitDx=0;exitDy=0;" edge="1" parent="1" source="EZzPmKoQQKgDypdtpeJH-27" target="EZzPmKoQQKgDypdtpeJH-41">
          <mxGeometry relative="1" as="geometry">
            <mxPoint x="240" y="200" as="targetPoint" />
          </mxGeometry>
        </mxCell>
        <mxCell id="EZzPmKoQQKgDypdtpeJH-27" value="InetAddress" style="swimlane;fontStyle=0;childLayout=stackLayout;horizontal=1;startSize=26;fillColor=none;horizontalStack=0;resizeParent=1;resizeParentMax=0;resizeLast=0;collapsible=1;marginBottom=0;whiteSpace=wrap;html=1;" vertex="1" parent="1">
          <mxGeometry x="80" y="254" width="100" height="78" as="geometry" />
        </mxCell>
        <mxCell id="EZzPmKoQQKgDypdtpeJH-28" value="addr" style="text;strokeColor=none;fillColor=none;align=left;verticalAlign=top;spacingLeft=4;spacingRight=4;overflow=hidden;rotatable=0;points=[[0,0.5],[1,0.5]];portConstraint=eastwest;whiteSpace=wrap;html=1;" vertex="1" parent="EZzPmKoQQKgDypdtpeJH-27">
          <mxGeometry y="26" width="100" height="26" as="geometry" />
        </mxCell>
        <mxCell id="EZzPmKoQQKgDypdtpeJH-29" value="port" style="text;strokeColor=none;fillColor=none;align=left;verticalAlign=top;spacingLeft=4;spacingRight=4;overflow=hidden;rotatable=0;points=[[0,0.5],[1,0.5]];portConstraint=eastwest;whiteSpace=wrap;html=1;" vertex="1" parent="EZzPmKoQQKgDypdtpeJH-27">
          <mxGeometry y="52" width="100" height="26" as="geometry" />
        </mxCell>
        <mxCell id="EZzPmKoQQKgDypdtpeJH-39" style="edgeStyle=orthogonalEdgeStyle;rounded=0;orthogonalLoop=1;jettySize=auto;html=1;" edge="1" parent="1" source="EZzPmKoQQKgDypdtpeJH-31" target="EZzPmKoQQKgDypdtpeJH-41">
          <mxGeometry relative="1" as="geometry">
            <mxPoint x="240" y="200" as="targetPoint" />
            <Array as="points">
              <mxPoint x="240" y="227" />
              <mxPoint x="241" y="227" />
            </Array>
          </mxGeometry>
        </mxCell>
        <mxCell id="EZzPmKoQQKgDypdtpeJH-31" value="Inet6Address" style="swimlane;fontStyle=0;childLayout=stackLayout;horizontal=1;startSize=26;fillColor=none;horizontalStack=0;resizeParent=1;resizeParentMax=0;resizeLast=0;collapsible=1;marginBottom=0;whiteSpace=wrap;html=1;" vertex="1" parent="1">
          <mxGeometry x="190" y="254" width="100" height="78" as="geometry" />
        </mxCell>
        <mxCell id="EZzPmKoQQKgDypdtpeJH-32" value="addr" style="text;strokeColor=none;fillColor=none;align=left;verticalAlign=top;spacingLeft=4;spacingRight=4;overflow=hidden;rotatable=0;points=[[0,0.5],[1,0.5]];portConstraint=eastwest;whiteSpace=wrap;html=1;" vertex="1" parent="EZzPmKoQQKgDypdtpeJH-31">
          <mxGeometry y="26" width="100" height="26" as="geometry" />
        </mxCell>
        <mxCell id="EZzPmKoQQKgDypdtpeJH-33" value="port" style="text;strokeColor=none;fillColor=none;align=left;verticalAlign=top;spacingLeft=4;spacingRight=4;overflow=hidden;rotatable=0;points=[[0,0.5],[1,0.5]];portConstraint=eastwest;whiteSpace=wrap;html=1;" vertex="1" parent="EZzPmKoQQKgDypdtpeJH-31">
          <mxGeometry y="52" width="100" height="26" as="geometry" />
        </mxCell>
        <mxCell id="EZzPmKoQQKgDypdtpeJH-40" style="edgeStyle=orthogonalEdgeStyle;rounded=0;orthogonalLoop=1;jettySize=auto;html=1;exitX=0.5;exitY=0;exitDx=0;exitDy=0;" edge="1" parent="1" source="EZzPmKoQQKgDypdtpeJH-34" target="EZzPmKoQQKgDypdtpeJH-41">
          <mxGeometry relative="1" as="geometry">
            <mxPoint x="240" y="200" as="targetPoint" />
          </mxGeometry>
        </mxCell>
        <mxCell id="EZzPmKoQQKgDypdtpeJH-34" value="LocalAddress" style="swimlane;fontStyle=0;childLayout=stackLayout;horizontal=1;startSize=26;fillColor=none;horizontalStack=0;resizeParent=1;resizeParentMax=0;resizeLast=0;collapsible=1;marginBottom=0;whiteSpace=wrap;html=1;" vertex="1" parent="1">
          <mxGeometry x="300" y="254" width="100" height="52" as="geometry" />
        </mxCell>
        <mxCell id="EZzPmKoQQKgDypdtpeJH-35" value="path" style="text;strokeColor=none;fillColor=none;align=left;verticalAlign=top;spacingLeft=4;spacingRight=4;overflow=hidden;rotatable=0;points=[[0,0.5],[1,0.5]];portConstraint=eastwest;whiteSpace=wrap;html=1;" vertex="1" parent="EZzPmKoQQKgDypdtpeJH-34">
          <mxGeometry y="26" width="100" height="26" as="geometry" />
        </mxCell>
        <mxCell id="EZzPmKoQQKgDypdtpeJH-41" value="&amp;lt;&amp;lt;interface&amp;gt;&amp;gt;&lt;br&gt;&lt;b&gt;Address&lt;/b&gt;" style="swimlane;fontStyle=0;childLayout=stackLayout;horizontal=1;startSize=26;fillColor=none;horizontalStack=0;resizeParent=1;resizeParentMax=0;resizeLast=0;collapsible=1;marginBottom=0;whiteSpace=wrap;html=1;" vertex="1" parent="1">
          <mxGeometry x="170" y="52" width="140" height="156" as="geometry" />
        </mxCell>
        <mxCell id="EZzPmKoQQKgDypdtpeJH-43" value="static FromUri()" style="text;strokeColor=none;fillColor=none;align=left;verticalAlign=top;spacingLeft=4;spacingRight=4;overflow=hidden;rotatable=0;points=[[0,0.5],[1,0.5]];portConstraint=eastwest;whiteSpace=wrap;html=1;" vertex="1" parent="EZzPmKoQQKgDypdtpeJH-41">
          <mxGeometry y="26" width="140" height="26" as="geometry" />
        </mxCell>
        <mxCell id="EZzPmKoQQKgDypdtpeJH-42" value="ToString()" style="text;strokeColor=none;fillColor=none;align=left;verticalAlign=top;spacingLeft=4;spacingRight=4;overflow=hidden;rotatable=0;points=[[0,0.5],[1,0.5]];portConstraint=eastwest;whiteSpace=wrap;html=1;" vertex="1" parent="EZzPmKoQQKgDypdtpeJH-41">
          <mxGeometry y="52" width="140" height="26" as="geometry" />
        </mxCell>
        <mxCell id="EZzPmKoQQKgDypdtpeJH-44" value="sockaddr *addr()" style="text;strokeColor=none;fillColor=none;align=left;verticalAlign=top;spacingLeft=4;spacingRight=4;overflow=hidden;rotatable=0;points=[[0,0.5],[1,0.5]];portConstraint=eastwest;whiteSpace=wrap;html=1;" vertex="1" parent="EZzPmKoQQKgDypdtpeJH-41">
          <mxGeometry y="78" width="140" height="26" as="geometry" />
        </mxCell>
        <mxCell id="EZzPmKoQQKgDypdtpeJH-50" value="+ item: attribute" style="text;strokeColor=none;fillColor=none;align=left;verticalAlign=top;spacingLeft=4;spacingRight=4;overflow=hidden;rotatable=0;points=[[0,0.5],[1,0.5]];portConstraint=eastwest;whiteSpace=wrap;html=1;" vertex="1" parent="EZzPmKoQQKgDypdtpeJH-41">
          <mxGeometry y="104" width="140" height="26" as="geometry" />
        </mxCell>
        <mxCell id="EZzPmKoQQKgDypdtpeJH-45" value="family()" style="text;strokeColor=none;fillColor=none;align=left;verticalAlign=top;spacingLeft=4;spacingRight=4;overflow=hidden;rotatable=0;points=[[0,0.5],[1,0.5]];portConstraint=eastwest;whiteSpace=wrap;html=1;" vertex="1" parent="EZzPmKoQQKgDypdtpeJH-41">
          <mxGeometry y="130" width="140" height="26" as="geometry" />
        </mxCell>
        <mxCell id="EZzPmKoQQKgDypdtpeJH-54" value="" style="shape=image;verticalLabelPosition=bottom;labelBackgroundColor=default;verticalAlign=top;aspect=fixed;imageAspect=0;image=https://cs144.github.io/doc/lab0/class_socket__inherit__graph.png;" vertex="1" parent="1">
          <mxGeometry x="30" y="391.5" width="389" height="187" as="geometry" />
        </mxCell>
        <mxCell id="EZzPmKoQQKgDypdtpeJH-56" value="Buffer" style="whiteSpace=wrap;html=1;fillColor=#ffe6cc;strokeColor=#d79b00;" vertex="1" parent="1">
          <mxGeometry x="340" y="670" width="90" height="40" as="geometry" />
        </mxCell>
        <mxCell id="EZzPmKoQQKgDypdtpeJH-57" value="EventLoop" style="whiteSpace=wrap;html=1;" vertex="1" parent="1">
          <mxGeometry x="560" y="600" width="70" height="40" as="geometry" />
        </mxCell>
      </root>
    </mxGraphModel>
  </diagram>
</mxfile>
